<svg xmlns="http://www.w3.org/2000/svg" width="1400" height="418" viewBox="0 0 1400 418" role="img" aria-labelledby="title desc"><title id="title">delegation ia.svg</title><desc id="desc">Humain puis Texte ou voix puis Brief structuré puis IA / agent ; Recherche et organisation puis Contrôle humain puis Publication validée</desc><rect width="1400" height="418" rx="25" fill="#f5f8fc"/><rect x="187.0" y="70" width="243.0" height="80" rx="15" fill="#101a35"/><text x="308.5" y="107" text-anchor="middle" font-family="DejaVu Sans, Arial, sans-serif" font-size="17" font-weight="bold" fill="white">Humain</text><path d="M 433.0 110 h 13 m -5 -5 l 5 5 -5 5" fill="none" stroke="#27c9d8" stroke-width="3"/><rect x="448.0" y="70" width="243.0" height="80" rx="15" fill="#8668ca"/><text x="569.5" y="107" text-anchor="middle" font-family="DejaVu Sans, Arial, sans-serif" font-size="17" font-weight="bold" fill="white">Texte ou voix</text><path d="M 694.0 110 h 13 m -5 -5 l 5 5 -5 5" fill="none" stroke="#27c9d8" stroke-width="3"/><rect x="709.0" y="70" width="243.0" height="80" rx="15" fill="#101a35"/><text x="830.5" y="107" text-anchor="middle" font-family="DejaVu Sans, Arial, sans-serif" font-size="17" font-weight="bold" fill="white">Brief structuré</text><path d="M 955.0 110 h 13 m -5 -5 l 5 5 -5 5" fill="none" stroke="#27c9d8" stroke-width="3"/><rect x="970.0" y="70" width="243.0" height="80" rx="15" fill="#8668ca"/><text x="1091.5" y="107" text-anchor="middle" font-family="DejaVu Sans, Arial, sans-serif" font-size="17" font-weight="bold" fill="white">IA / agent</text><path d="M 700 157 v 43" stroke="#27c9d8" stroke-width="3"/><rect x="317.5" y="214" width="243.0" height="80" rx="15" fill="#101a35"/><text x="439.0" y="239" text-anchor="middle" font-family="DejaVu Sans, Arial, sans-serif" font-size="17" font-weight="bold" fill="white">Recherche et</text><text x="439.0" y="263" text-anchor="middle" font-family="DejaVu Sans, Arial, sans-serif" font-size="17" font-weight="bold" fill="white">organisation</text><path d="M 563.5 254 h 13 m -5 -5 l 5 5 -5 5" fill="none" stroke="#27c9d8" stroke-width="3"/><rect x="578.5" y="214" width="243.0" height="80" rx="15" fill="#8668ca"/><text x="700.0" y="251" text-anchor="middle" font-family="DejaVu Sans, Arial, sans-serif" font-size="17" font-weight="bold" fill="white">Contrôle humain</text><path d="M 824.5 254 h 13 m -5 -5 l 5 5 -5 5" fill="none" stroke="#27c9d8" stroke-width="3"/><rect x="839.5" y="214" width="243.0" height="80" rx="15" fill="#101a35"/><text x="961.0" y="251" text-anchor="middle" font-family="DejaVu Sans, Arial, sans-serif" font-size="17" font-weight="bold" fill="white">Publication validée</text></svg>