<svg xmlns="http://www.w3.org/2000/svg" width="1400" height="274" viewBox="0 0 1400 274" role="img" aria-labelledby="title desc"><title id="title">mesures.svg</title><desc id="desc">Portée puis Intérêt puis Demandes puis Ventes encaissées</desc><rect width="1400" height="274" rx="25" fill="#f5f8fc"/><rect x="187.0" y="70" width="243.0" height="80" rx="15" fill="#101a35"/><text x="308.5" y="107" text-anchor="middle" font-family="DejaVu Sans, Arial, sans-serif" font-size="17" font-weight="bold" fill="white">Portée</text><path d="M 433.0 110 h 13 m -5 -5 l 5 5 -5 5" fill="none" stroke="#27c9d8" stroke-width="3"/><rect x="448.0" y="70" width="243.0" height="80" rx="15" fill="#8668ca"/><text x="569.5" y="107" text-anchor="middle" font-family="DejaVu Sans, Arial, sans-serif" font-size="17" font-weight="bold" fill="white">Intérêt</text><path d="M 694.0 110 h 13 m -5 -5 l 5 5 -5 5" fill="none" stroke="#27c9d8" stroke-width="3"/><rect x="709.0" y="70" width="243.0" height="80" rx="15" fill="#101a35"/><text x="830.5" y="107" text-anchor="middle" font-family="DejaVu Sans, Arial, sans-serif" font-size="17" font-weight="bold" fill="white">Demandes</text><path d="M 955.0 110 h 13 m -5 -5 l 5 5 -5 5" fill="none" stroke="#27c9d8" stroke-width="3"/><rect x="970.0" y="70" width="243.0" height="80" rx="15" fill="#8668ca"/><text x="1091.5" y="107" text-anchor="middle" font-family="DejaVu Sans, Arial, sans-serif" font-size="17" font-weight="bold" fill="white">Ventes encaissées</text></svg>